<?xml version="1.0" encoding="UTF-8" standalone="no"?>
<!-- Created with Inkscape (http://www.inkscape.org/) -->

<svg
   xmlns:dc="http://purl.org/dc/elements/1.1/"
   xmlns:cc="http://creativecommons.org/ns#"
   xmlns:rdf="http://www.w3.org/1999/02/22-rdf-syntax-ns#"
   xmlns:svg="http://www.w3.org/2000/svg"
   xmlns="http://www.w3.org/2000/svg"
   xmlns:sodipodi="http://sodipodi.sourceforge.net/DTD/sodipodi-0.dtd"
   xmlns:inkscape="http://www.inkscape.org/namespaces/inkscape"
   width="46.113644mm"
   height="9.468585mm"
   viewBox="0 0 163.3948 33.550104"
   id="svg3474"
   version="1.1"
   inkscape:version="0.91 r13725"
   sodipodi:docname="kimchi-logo-black.svg">
  <defs
     id="defs3476" />
  <sodipodi:namedview
     id="base"
     pagecolor="#ffffff"
     bordercolor="#666666"
     borderopacity="1.0"
     inkscape:pageopacity="0.0"
     inkscape:pageshadow="2"
     inkscape:zoom="7.7297445"
     inkscape:cx="79.174677"
     inkscape:cy="20.107106"
     inkscape:document-units="px"
     inkscape:current-layer="layer1"
     showgrid="false"
     fit-margin-top="0"
     fit-margin-left="0"
     fit-margin-right="0"
     fit-margin-bottom="0"
     inkscape:window-width="1440"
     inkscape:window-height="801"
     inkscape:window-x="0"
     inkscape:window-y="0"
     inkscape:window-maximized="1" />
  <metadata
     id="metadata3479">
    <rdf:RDF>
      <cc:Work
         rdf:about="">
        <dc:format>image/svg+xml</dc:format>
        <dc:type
           rdf:resource="http://purl.org/dc/dcmitype/StillImage" />
        <dc:title></dc:title>
      </cc:Work>
    </rdf:RDF>
  </metadata>
  <g
     inkscape:label="Layer 1"
     inkscape:groupmode="layer"
     id="layer1"
     transform="translate(-163.51384,-257.50412)">
    <g
       id="g3606">
      <g
         transform="matrix(0.03716501,0,0,0.03716501,162.37773,254.46335)"
         id="g3534">
        <g
           inkscape:label="Layer 1"
           id="layer1-5">
          <path
             style="fill:#000000"
             d="M 176.95198,942.39429 C 80.545307,873.81189 30.49058,759.10708 30.569549,606.9461 30.609713,528.27026 42.142096,448.30416 60.15185,401.80959 76.385286,359.90073 85.415474,321.12113 80.218855,315.63273 58.924335,293.14259 97.743526,188.77259 146.59164,137.18176 c 51.36982,-54.254154 79.35409,-56.204404 233.9396,-55.199614 154.5855,1.0048 182.57736,0.91902 230.69988,63.399964 31.67915,46.18728 66.90211,125.41168 43.08428,167.43551 -12.81444,22.60962 29.16694,64.27519 42.50877,119.93124 23.45201,97.83127 22.7578,202.41336 -0.98163,299.32229 -23.73945,96.90894 -70.52414,186.14464 -147.88138,228.65354 -28.05261,15.4153 -90.66436,23.827 -167.55808,23.827 -105.62992,0 -154.96027,-7.6616 -203.4511,-42.1574 z m 375.16576,-52.2371 c 103.65211,-102.8436 143.85685,-353.00344 65.63889,-511.49375 -23.73551,-48.09448 -29.39851,-77.2458 -17.45612,-89.85875 11.94242,-12.61292 11.53205,-30.7964 -1.26496,-56.05038 -43.28038,-85.41089 -67.41089,-95.51278 -228.15217,-95.51278 -150.74237,0 -155.17212,1.25952 -199.32035,56.6726 -48.38764,60.7343 -54.66095,82.30447 -28.83882,99.15949 9.32369,6.08591 1.80127,45.29576 -17.55755,91.51686 -88.835751,212.10411 -37.083473,472.41381 105.88788,532.60731 14.38844,6.0578 77.71833,10.9817 151.3649,10.9817 68.8388,0 131.75789,-0.3778 169.6983,-38.0223 z m -381.408,-125.21925 c -37.25808,-76.09463 -42.78151,-176.41163 -9.71316,-176.41163 16.00012,0 29.73499,24.58837 36.01205,64.46925 5.58089,35.45808 19.44844,82.57435 30.81676,104.70284 26.79913,52.16459 26.06335,61.07519 -5.04324,61.07519 -14.14212,0 -37.57467,-24.226 -52.07241,-53.83565 z M 143.8519,524.92377 c 0,-53.93732 37.31364,-129.80524 63.84131,-129.80524 29.92564,0 29.40293,17.06915 -3.03351,99.05935 -28.5871,72.26011 -60.8078,88.55167 -60.8078,30.74589 z m 52.32159,-203.48438 c 0,-11.05188 69.7621,-18.41979 174.40527,-18.41979 104.64318,0 174.4053,7.36791 174.4053,18.41979 0,11.05186 -69.76212,18.41979 -174.4053,18.41979 -104.64317,0 -174.40527,-7.36793 -174.40527,-18.41979 z"
             id="path4404"
             inkscape:connector-curvature="0"
             sodipodi:nodetypes="ssssszcssssssssssssssssssssssssssssssss" />
        </g>
        <g
           id="layer2"
           inkscape:label="Layer 2" />
      </g>
      <g
         inkscape:label="Layer 1"
         id="layer1-9"
         transform="translate(194.32893,256.46951)">
        <path
           inkscape:connector-curvature="0"
           id="path3345"
           style="font-style:normal;font-variant:normal;font-weight:900;font-stretch:normal;font-size:40px;line-height:125%;font-family:Kimberley;-inkscape-font-specification:'Kimberley, Heavy';text-align:start;letter-spacing:0px;word-spacing:0px;writing-mode:lr-tb;text-anchor:start;fill:#000000;fill-opacity:1;stroke:none;stroke-width:1px;stroke-linecap:butt;stroke-linejoin:miter;stroke-opacity:1"
           d="m 25.230958,34.349841 -8.12,-14.92 0,14.92 -6.92,0 0,-30.3999996 6.92,0 0,12.1599996 7.4,-12.1599996 7.96,0 -8.48,13.1999996 9.84,17.2 -8.6,0 z" />
        <path
           inkscape:connector-curvature="0"
           id="path3347"
           style="font-style:normal;font-variant:normal;font-weight:900;font-stretch:normal;font-size:40px;line-height:125%;font-family:Kimberley;-inkscape-font-specification:'Kimberley, Heavy';text-align:start;letter-spacing:0px;word-spacing:0px;writing-mode:lr-tb;text-anchor:start;fill:#000000;fill-opacity:1;stroke:none;stroke-width:1px;stroke-linecap:butt;stroke-linejoin:miter;stroke-opacity:1"
           d="m 37.177828,8.9498414 q -1.44,0 -1.44,-1.56 l 0,-2.68 q 0,-1.56 1.6,-1.56 l 3.76,0 q 1.52,0 1.52,1.56 l 0,2.68 q 0,1.56 -1.52,1.56 l -3.92,0 z m -1.44,25.3999996 0,-23.48 6.92,0 0,23.48 -6.92,0 z" />
        <path
           inkscape:connector-curvature="0"
           id="path3349"
           style="font-style:normal;font-variant:normal;font-weight:900;font-stretch:normal;font-size:40px;line-height:125%;font-family:Kimberley;-inkscape-font-specification:'Kimberley, Heavy';text-align:start;letter-spacing:0px;word-spacing:0px;writing-mode:lr-tb;text-anchor:start;fill:#000000;fill-opacity:1;stroke:none;stroke-width:1px;stroke-linecap:butt;stroke-linejoin:miter;stroke-opacity:1"
           d="m 70.926578,34.349841 0,-15.32 q 0,-1.2 -1.2,-1.2 l -4.4,0 0,16.52 -6.84,0 0,-16.52 -4.32,0 q -1.2,0 -1.2,1.2 l 0,15.32 -6.84,0 0,-17.96 q 0,-5.52 5.48,-5.52 l 20.64,0 q 5.44,0 5.44,5.56 l 0,17.92 -6.76,0 z" />
        <path
           inkscape:connector-curvature="0"
           id="path3351"
           style="font-style:normal;font-variant:normal;font-weight:900;font-stretch:normal;font-size:40px;line-height:125%;font-family:Kimberley;-inkscape-font-specification:'Kimberley, Heavy';text-align:start;letter-spacing:0px;word-spacing:0px;writing-mode:lr-tb;text-anchor:start;fill:#000000;fill-opacity:1;stroke:none;stroke-width:1px;stroke-linecap:butt;stroke-linejoin:miter;stroke-opacity:1"
           d="m 86.568458,34.349841 q -5.6,0 -5.6,-5.32 l 0,-12.64 q 0,-5.52 5.48,-5.52 l 11.76,0 0,6.96 -9.12,0 q -1.2,0 -1.2,1.2 l 0,7.12 q 0,1.28 1.2,1.28 l 9.2,0 0,6.92 -11.72,0 z" />
        <path
           inkscape:connector-curvature="0"
           id="path3353"
           style="font-style:normal;font-variant:normal;font-weight:900;font-stretch:normal;font-size:40px;line-height:125%;font-family:Kimberley;-inkscape-font-specification:'Kimberley, Heavy';text-align:start;letter-spacing:0px;word-spacing:0px;writing-mode:lr-tb;text-anchor:start;fill:#000000;fill-opacity:1;stroke:none;stroke-width:1px;stroke-linecap:butt;stroke-linejoin:miter;stroke-opacity:1"
           d="m 115.21033,34.349841 0,-15.32 q 0,-1.2 -1.2,-1.2 l -6.04,0 0,16.52 -6.92,0 0,-30.3999996 6.92,0 0,6.9199996 8.68,0 q 5.48,0 5.48,5.52 l 0,17.96 -6.92,0 z" />
        <path
           inkscape:connector-curvature="0"
           id="path3355"
           style="font-style:normal;font-variant:normal;font-weight:900;font-stretch:normal;font-size:40px;line-height:125%;font-family:Kimberley;-inkscape-font-specification:'Kimberley, Heavy';text-align:start;letter-spacing:0px;word-spacing:0px;writing-mode:lr-tb;text-anchor:start;fill:#000000;fill-opacity:1;stroke:none;stroke-width:1px;stroke-linecap:butt;stroke-linejoin:miter;stroke-opacity:1"
           d="m 127.09971,8.9498414 q -1.44,0 -1.44,-1.56 l 0,-2.68 q 0,-1.56 1.6,-1.56 l 3.76,0 q 1.52,0 1.52,1.56 l 0,2.68 q 0,1.56 -1.52,1.56 l -3.92,0 z m -1.44,25.3999996 0,-23.48 6.92,0 0,23.48 -6.92,0 z" />
      </g>
    </g>
  </g>
</svg>
