<?xml version="1.0" encoding="UTF-8" standalone="no"?>
<!-- Created with Inkscape (http://www.inkscape.org/) -->

<svg
   xmlns:dc="http://purl.org/dc/elements/1.1/"
   xmlns:cc="http://creativecommons.org/ns#"
   xmlns:rdf="http://www.w3.org/1999/02/22-rdf-syntax-ns#"
   xmlns:svg="http://www.w3.org/2000/svg"
   xmlns="http://www.w3.org/2000/svg"
   xmlns:sodipodi="http://sodipodi.sourceforge.net/DTD/sodipodi-0.dtd"
   xmlns:inkscape="http://www.inkscape.org/namespaces/inkscape"
   width="34.540825mm"
   height="8.8053331mm"
   viewBox="0 0 122.38875 31.199999"
   id="svg2"
   version="1.1"
   inkscape:version="0.91 r13725"
   sodipodi:docname="logo.svg">
  <defs
     id="defs4" />
  <sodipodi:namedview
     id="base"
     pagecolor="#ffffff"
     bordercolor="#666666"
     borderopacity="1.0"
     inkscape:pageopacity="0.0"
     inkscape:pageshadow="2"
     inkscape:zoom="0.56919566"
     inkscape:cx="361.85629"
     inkscape:cy="-491.83126"
     inkscape:document-units="px"
     inkscape:current-layer="layer1"
     showgrid="false"
     inkscape:window-width="1440"
     inkscape:window-height="801"
     inkscape:window-x="0"
     inkscape:window-y="0"
     inkscape:window-maximized="1"
     fit-margin-top="0"
     fit-margin-left="0"
     fit-margin-right="0"
     fit-margin-bottom="0" />
  <metadata
     id="metadata7">
    <rdf:RDF>
      <cc:Work
         rdf:about="">
        <dc:format>image/svg+xml</dc:format>
        <dc:type
           rdf:resource="http://purl.org/dc/dcmitype/StillImage" />
        <dc:title></dc:title>
      </cc:Work>
    </rdf:RDF>
  </metadata>
  <g
     inkscape:label="Layer 1"
     inkscape:groupmode="layer"
     id="layer1"
     transform="translate(-10.190958,-3.1498414)">
    <path
       inkscape:connector-curvature="0"
       id="path3345"
       style="font-style:normal;font-variant:normal;font-weight:900;font-stretch:normal;font-size:40px;line-height:125%;font-family:Kimberley;-inkscape-font-specification:'Kimberley, Heavy';text-align:start;letter-spacing:0px;word-spacing:0px;writing-mode:lr-tb;text-anchor:start;fill:#000000;fill-opacity:1;stroke:none;stroke-width:1px;stroke-linecap:butt;stroke-linejoin:miter;stroke-opacity:1"
       d="m 25.230958,34.349841 -8.12,-14.92 0,14.92 -6.92,0 0,-30.3999996 6.92,0 0,12.1599996 7.4,-12.1599996 7.96,0 -8.48,13.1999996 9.84,17.2 -8.6,0 z" />
    <path
       inkscape:connector-curvature="0"
       id="path3347"
       style="font-style:normal;font-variant:normal;font-weight:900;font-stretch:normal;font-size:40px;line-height:125%;font-family:Kimberley;-inkscape-font-specification:'Kimberley, Heavy';text-align:start;letter-spacing:0px;word-spacing:0px;writing-mode:lr-tb;text-anchor:start;fill:#000000;fill-opacity:1;stroke:none;stroke-width:1px;stroke-linecap:butt;stroke-linejoin:miter;stroke-opacity:1"
       d="m 37.177828,8.9498414 q -1.44,0 -1.44,-1.56 l 0,-2.68 q 0,-1.56 1.6,-1.56 l 3.76,0 q 1.52,0 1.52,1.56 l 0,2.68 q 0,1.56 -1.52,1.56 l -3.92,0 z m -1.44,25.3999996 0,-23.48 6.92,0 0,23.48 -6.92,0 z" />
    <path
       inkscape:connector-curvature="0"
       id="path3349"
       style="font-style:normal;font-variant:normal;font-weight:900;font-stretch:normal;font-size:40px;line-height:125%;font-family:Kimberley;-inkscape-font-specification:'Kimberley, Heavy';text-align:start;letter-spacing:0px;word-spacing:0px;writing-mode:lr-tb;text-anchor:start;fill:#000000;fill-opacity:1;stroke:none;stroke-width:1px;stroke-linecap:butt;stroke-linejoin:miter;stroke-opacity:1"
       d="m 70.926578,34.349841 0,-15.32 q 0,-1.2 -1.2,-1.2 l -4.4,0 0,16.52 -6.84,0 0,-16.52 -4.32,0 q -1.2,0 -1.2,1.2 l 0,15.32 -6.84,0 0,-17.96 q 0,-5.52 5.48,-5.52 l 20.64,0 q 5.44,0 5.44,5.56 l 0,17.92 -6.76,0 z" />
    <path
       inkscape:connector-curvature="0"
       id="path3351"
       style="font-style:normal;font-variant:normal;font-weight:900;font-stretch:normal;font-size:40px;line-height:125%;font-family:Kimberley;-inkscape-font-specification:'Kimberley, Heavy';text-align:start;letter-spacing:0px;word-spacing:0px;writing-mode:lr-tb;text-anchor:start;fill:#000000;fill-opacity:1;stroke:none;stroke-width:1px;stroke-linecap:butt;stroke-linejoin:miter;stroke-opacity:1"
       d="m 86.568458,34.349841 q -5.6,0 -5.6,-5.32 l 0,-12.64 q 0,-5.52 5.48,-5.52 l 11.76,0 0,6.96 -9.12,0 q -1.2,0 -1.2,1.2 l 0,7.12 q 0,1.28 1.2,1.28 l 9.2,0 0,6.92 -11.72,0 z" />
    <path
       inkscape:connector-curvature="0"
       id="path3353"
       style="font-style:normal;font-variant:normal;font-weight:900;font-stretch:normal;font-size:40px;line-height:125%;font-family:Kimberley;-inkscape-font-specification:'Kimberley, Heavy';text-align:start;letter-spacing:0px;word-spacing:0px;writing-mode:lr-tb;text-anchor:start;fill:#000000;fill-opacity:1;stroke:none;stroke-width:1px;stroke-linecap:butt;stroke-linejoin:miter;stroke-opacity:1"
       d="m 115.21033,34.349841 0,-15.32 q 0,-1.2 -1.2,-1.2 l -6.04,0 0,16.52 -6.92,0 0,-30.3999996 6.92,0 0,6.9199996 8.68,0 q 5.48,0 5.48,5.52 l 0,17.96 -6.92,0 z" />
    <path
       inkscape:connector-curvature="0"
       id="path3355"
       style="font-style:normal;font-variant:normal;font-weight:900;font-stretch:normal;font-size:40px;line-height:125%;font-family:Kimberley;-inkscape-font-specification:'Kimberley, Heavy';text-align:start;letter-spacing:0px;word-spacing:0px;writing-mode:lr-tb;text-anchor:start;fill:#000000;fill-opacity:1;stroke:none;stroke-width:1px;stroke-linecap:butt;stroke-linejoin:miter;stroke-opacity:1"
       d="m 127.09971,8.9498414 q -1.44,0 -1.44,-1.56 l 0,-2.68 q 0,-1.56 1.6,-1.56 l 3.76,0 q 1.52,0 1.52,1.56 l 0,2.68 q 0,1.56 -1.52,1.56 l -3.92,0 z m -1.44,25.3999996 0,-23.48 6.92,0 0,23.48 -6.92,0 z" />
  </g>
</svg>
